<svg width="240" height="29" viewBox="0 0 240 29" fill="none" xmlns="http://www.w3.org/2000/svg">
<path d="M0.784 23L8.272 6.2H12.112L19.624 23H15.544L9.4 8.168H10.936L4.768 23H0.784ZM4.528 19.4L5.56 16.448H14.2L15.256 19.4H4.528ZM28.735 23.192C27.599 23.192 26.623 22.952 25.807 22.472C24.991 21.992 24.367 21.264 23.935 20.288C23.503 19.296 23.287 18.048 23.287 16.544C23.287 15.024 23.511 13.776 23.959 12.8C24.423 11.824 25.063 11.096 25.879 10.616C26.695 10.136 27.647 9.896 28.735 9.896C29.951 9.896 31.039 10.168 31.999 10.712C32.975 11.256 33.743 12.024 34.303 13.016C34.879 14.008 35.167 15.184 35.167 16.544C35.167 17.888 34.879 19.056 34.303 20.048C33.743 21.04 32.975 21.816 31.999 22.376C31.039 22.92 29.951 23.192 28.735 23.192ZM21.103 23V5.192H24.847V12.704L24.607 16.52L24.679 20.36V23H21.103ZM28.087 20.12C28.711 20.12 29.263 19.976 29.743 19.688C30.239 19.4 30.631 18.992 30.919 18.464C31.223 17.92 31.375 17.28 31.375 16.544C31.375 15.792 31.223 15.152 30.919 14.624C30.631 14.096 30.239 13.688 29.743 13.4C29.263 13.112 28.711 12.968 28.087 12.968C27.463 12.968 26.903 13.112 26.407 13.4C25.911 13.688 25.519 14.096 25.231 14.624C24.943 15.152 24.799 15.792 24.799 16.544C24.799 17.28 24.943 17.92 25.231 18.464C25.519 18.992 25.911 19.4 26.407 19.688C26.903 19.976 27.463 20.12 28.087 20.12ZM42.0173 23.192C40.9133 23.192 39.8493 23.064 38.8253 22.808C37.8173 22.536 37.0173 22.2 36.4253 21.8L37.6733 19.112C38.2653 19.48 38.9613 19.784 39.7613 20.024C40.5773 20.248 41.3773 20.36 42.1613 20.36C43.0253 20.36 43.6333 20.256 43.9853 20.048C44.3533 19.84 44.5373 19.552 44.5373 19.184C44.5373 18.88 44.3933 18.656 44.1053 18.512C43.8333 18.352 43.4653 18.232 43.0013 18.152C42.5373 18.072 42.0253 17.992 41.4653 17.912C40.9213 17.832 40.3693 17.728 39.8093 17.6C39.2493 17.456 38.7373 17.248 38.2733 16.976C37.8093 16.704 37.4333 16.336 37.1453 15.872C36.8733 15.408 36.7373 14.808 36.7373 14.072C36.7373 13.256 36.9693 12.536 37.4333 11.912C37.9133 11.288 38.6013 10.8 39.4973 10.448C40.3933 10.08 41.4653 9.896 42.7133 9.896C43.5933 9.896 44.4893 9.992 45.4013 10.184C46.3133 10.376 47.0733 10.656 47.6813 11.024L46.4333 13.688C45.8093 13.32 45.1773 13.072 44.5373 12.944C43.9133 12.8 43.3053 12.728 42.7133 12.728C41.8813 12.728 41.2733 12.84 40.8893 13.064C40.5053 13.288 40.3133 13.576 40.3133 13.928C40.3133 14.248 40.4493 14.488 40.7213 14.648C41.0093 14.808 41.3853 14.936 41.8493 15.032C42.3133 15.128 42.8173 15.216 43.3613 15.296C43.9213 15.36 44.4813 15.464 45.0413 15.608C45.6013 15.752 46.1053 15.96 46.5533 16.232C47.0173 16.488 47.3933 16.848 47.6813 17.312C47.9693 17.76 48.1133 18.352 48.1133 19.088C48.1133 19.888 47.8733 20.6 47.3933 21.224C46.9133 21.832 46.2173 22.312 45.3053 22.664C44.4093 23.016 43.3133 23.192 42.0173 23.192ZM56.5673 23.192C55.1913 23.192 53.9673 22.904 52.8953 22.328C51.8393 21.752 50.9993 20.968 50.3753 19.976C49.7673 18.968 49.4633 17.824 49.4633 16.544C49.4633 15.248 49.7673 14.104 50.3753 13.112C50.9993 12.104 51.8393 11.32 52.8953 10.76C53.9673 10.184 55.1913 9.896 56.5673 9.896C57.9273 9.896 59.1433 10.184 60.2153 10.76C61.2873 11.32 62.1273 12.096 62.7353 13.088C63.3433 14.08 63.6473 15.232 63.6473 16.544C63.6473 17.824 63.3433 18.968 62.7353 19.976C62.1273 20.968 61.2873 21.752 60.2153 22.328C59.1433 22.904 57.9273 23.192 56.5673 23.192ZM56.5673 20.12C57.1913 20.12 57.7513 19.976 58.2473 19.688C58.7433 19.4 59.1353 18.992 59.4233 18.464C59.7113 17.92 59.8553 17.28 59.8553 16.544C59.8553 15.792 59.7113 15.152 59.4233 14.624C59.1353 14.096 58.7433 13.688 58.2473 13.4C57.7513 13.112 57.1913 12.968 56.5673 12.968C55.9433 12.968 55.3833 13.112 54.8873 13.4C54.3913 13.688 53.9913 14.096 53.6873 14.624C53.3993 15.152 53.2553 15.792 53.2553 16.544C53.2553 17.28 53.3993 17.92 53.6873 18.464C53.9913 18.992 54.3913 19.4 54.8873 19.688C55.3833 19.976 55.9433 20.12 56.5673 20.12ZM66.1499 23V5.192H69.8939V23H66.1499ZM78.8166 23.192C77.7446 23.192 76.7846 22.984 75.9366 22.568C75.1046 22.152 74.4566 21.52 73.9926 20.672C73.5286 19.808 73.2966 18.712 73.2966 17.384V10.088H77.0406V16.832C77.0406 17.904 77.2646 18.696 77.7126 19.208C78.1766 19.704 78.8246 19.952 79.6566 19.952C80.2326 19.952 80.7446 19.832 81.1926 19.592C81.6406 19.336 81.9926 18.952 82.2486 18.44C82.5046 17.912 82.6326 17.256 82.6326 16.472V10.088H86.3766V23H82.8246V19.448L83.4726 20.48C83.0406 21.376 82.4006 22.056 81.5526 22.52C80.7206 22.968 79.8086 23.192 78.8166 23.192ZM95.1252 23.192C93.6052 23.192 92.4212 22.808 91.5732 22.04C90.7252 21.256 90.3012 20.096 90.3012 18.56V7.232H94.0452V18.512C94.0452 19.056 94.1892 19.48 94.4772 19.784C94.7652 20.072 95.1572 20.216 95.6532 20.216C96.2452 20.216 96.7492 20.056 97.1652 19.736L98.1732 22.376C97.7892 22.648 97.3252 22.856 96.7812 23C96.2532 23.128 95.7012 23.192 95.1252 23.192ZM88.3092 13.256V10.376H97.2612V13.256H88.3092ZM106.284 23.192C104.812 23.192 103.516 22.904 102.396 22.328C101.292 21.752 100.436 20.968 99.8284 19.976C99.2204 18.968 98.9164 17.824 98.9164 16.544C98.9164 15.248 99.2124 14.104 99.8044 13.112C100.412 12.104 101.236 11.32 102.276 10.76C103.316 10.184 104.492 9.896 105.804 9.896C107.068 9.896 108.204 10.168 109.212 10.712C110.236 11.24 111.044 12.008 111.636 13.016C112.228 14.008 112.524 15.2 112.524 16.592C112.524 16.736 112.516 16.904 112.5 17.096C112.484 17.272 112.468 17.44 112.452 17.6H101.964V15.416H110.484L109.044 16.064C109.044 15.392 108.908 14.808 108.636 14.312C108.364 13.816 107.988 13.432 107.508 13.16C107.028 12.872 106.468 12.728 105.828 12.728C105.188 12.728 104.62 12.872 104.124 13.16C103.644 13.432 103.268 13.824 102.996 14.336C102.724 14.832 102.588 15.424 102.588 16.112V16.688C102.588 17.392 102.74 18.016 103.044 18.56C103.364 19.088 103.804 19.496 104.364 19.784C104.94 20.056 105.612 20.192 106.38 20.192C107.068 20.192 107.668 20.088 108.18 19.88C108.708 19.672 109.188 19.36 109.62 18.944L111.612 21.104C111.02 21.776 110.276 22.296 109.38 22.664C108.484 23.016 107.452 23.192 106.284 23.192Z" fill="#1B6FBC"/>
<path d="M121.992 23V6.2H125.208L132.36 18.056H130.656L137.688 6.2H140.88L140.928 23H137.28L137.256 11.792H137.928L132.312 21.224H130.56L124.824 11.792H125.64V23H121.992ZM151.058 23.192C149.586 23.192 148.29 22.904 147.17 22.328C146.066 21.752 145.21 20.968 144.602 19.976C143.994 18.968 143.69 17.824 143.69 16.544C143.69 15.248 143.986 14.104 144.578 13.112C145.186 12.104 146.01 11.32 147.05 10.76C148.09 10.184 149.266 9.896 150.578 9.896C151.842 9.896 152.978 10.168 153.986 10.712C155.01 11.24 155.818 12.008 156.41 13.016C157.002 14.008 157.298 15.2 157.298 16.592C157.298 16.736 157.29 16.904 157.274 17.096C157.258 17.272 157.242 17.44 157.226 17.6H146.738V15.416H155.258L153.818 16.064C153.818 15.392 153.682 14.808 153.41 14.312C153.138 13.816 152.762 13.432 152.282 13.16C151.802 12.872 151.242 12.728 150.602 12.728C149.962 12.728 149.394 12.872 148.898 13.16C148.418 13.432 148.042 13.824 147.77 14.336C147.498 14.832 147.362 15.424 147.362 16.112V16.688C147.362 17.392 147.514 18.016 147.818 18.56C148.138 19.088 148.578 19.496 149.138 19.784C149.714 20.056 150.386 20.192 151.154 20.192C151.842 20.192 152.442 20.088 152.954 19.88C153.482 19.672 153.962 19.36 154.394 18.944L156.386 21.104C155.794 21.776 155.05 22.296 154.154 22.664C153.258 23.016 152.226 23.192 151.058 23.192ZM167.359 23V20.48L167.119 19.928V15.416C167.119 14.616 166.871 13.992 166.375 13.544C165.895 13.096 165.151 12.872 164.143 12.872C163.455 12.872 162.775 12.984 162.103 13.208C161.447 13.416 160.887 13.704 160.423 14.072L159.079 11.456C159.783 10.96 160.631 10.576 161.623 10.304C162.615 10.032 163.623 9.896 164.647 9.896C166.615 9.896 168.143 10.36 169.231 11.288C170.319 12.216 170.863 13.664 170.863 15.632V23H167.359ZM163.423 23.192C162.415 23.192 161.551 23.024 160.831 22.688C160.111 22.336 159.559 21.864 159.175 21.272C158.791 20.68 158.599 20.016 158.599 19.28C158.599 18.512 158.783 17.84 159.151 17.264C159.535 16.688 160.135 16.24 160.951 15.92C161.767 15.584 162.831 15.416 164.143 15.416H167.575V17.6H164.551C163.671 17.6 163.063 17.744 162.727 18.032C162.407 18.32 162.247 18.68 162.247 19.112C162.247 19.592 162.431 19.976 162.799 20.264C163.183 20.536 163.703 20.672 164.359 20.672C164.983 20.672 165.543 20.528 166.039 20.24C166.535 19.936 166.895 19.496 167.119 18.92L167.695 20.648C167.423 21.48 166.927 22.112 166.207 22.544C165.487 22.976 164.559 23.192 163.423 23.192ZM178.595 23.192C177.491 23.192 176.427 23.064 175.403 22.808C174.395 22.536 173.595 22.2 173.003 21.8L174.251 19.112C174.843 19.48 175.539 19.784 176.339 20.024C177.155 20.248 177.955 20.36 178.739 20.36C179.603 20.36 180.211 20.256 180.563 20.048C180.931 19.84 181.115 19.552 181.115 19.184C181.115 18.88 180.971 18.656 180.683 18.512C180.411 18.352 180.043 18.232 179.579 18.152C179.115 18.072 178.603 17.992 178.043 17.912C177.499 17.832 176.947 17.728 176.387 17.6C175.827 17.456 175.315 17.248 174.851 16.976C174.387 16.704 174.011 16.336 173.723 15.872C173.451 15.408 173.315 14.808 173.315 14.072C173.315 13.256 173.547 12.536 174.011 11.912C174.491 11.288 175.179 10.8 176.075 10.448C176.971 10.08 178.043 9.896 179.291 9.896C180.171 9.896 181.067 9.992 181.979 10.184C182.891 10.376 183.651 10.656 184.259 11.024L183.011 13.688C182.387 13.32 181.755 13.072 181.115 12.944C180.491 12.8 179.883 12.728 179.291 12.728C178.459 12.728 177.851 12.84 177.467 13.064C177.083 13.288 176.891 13.576 176.891 13.928C176.891 14.248 177.027 14.488 177.299 14.648C177.587 14.808 177.963 14.936 178.427 15.032C178.891 15.128 179.395 15.216 179.939 15.296C180.499 15.36 181.059 15.464 181.619 15.608C182.179 15.752 182.683 15.96 183.131 16.232C183.595 16.488 183.971 16.848 184.259 17.312C184.547 17.76 184.691 18.352 184.691 19.088C184.691 19.888 184.451 20.6 183.971 21.224C183.491 21.832 182.795 22.312 181.883 22.664C180.987 23.016 179.891 23.192 178.595 23.192ZM192.449 23.192C191.377 23.192 190.417 22.984 189.569 22.568C188.737 22.152 188.089 21.52 187.625 20.672C187.161 19.808 186.929 18.712 186.929 17.384V10.088H190.673V16.832C190.673 17.904 190.897 18.696 191.345 19.208C191.809 19.704 192.457 19.952 193.289 19.952C193.865 19.952 194.377 19.832 194.825 19.592C195.273 19.336 195.625 18.952 195.881 18.44C196.137 17.912 196.265 17.256 196.265 16.472V10.088H200.009V23H196.457V19.448L197.105 20.48C196.673 21.376 196.033 22.056 195.185 22.52C194.353 22.968 193.441 23.192 192.449 23.192ZM203.478 23V10.088H207.054V13.736L206.55 12.68C206.934 11.768 207.55 11.08 208.398 10.616C209.246 10.136 210.278 9.896 211.494 9.896V13.352C211.334 13.336 211.19 13.328 211.062 13.328C210.934 13.312 210.798 13.304 210.654 13.304C209.63 13.304 208.798 13.6 208.158 14.192C207.534 14.768 207.222 15.672 207.222 16.904V23H203.478ZM220.034 23.192C218.562 23.192 217.266 22.904 216.146 22.328C215.042 21.752 214.186 20.968 213.578 19.976C212.97 18.968 212.666 17.824 212.666 16.544C212.666 15.248 212.962 14.104 213.554 13.112C214.162 12.104 214.986 11.32 216.026 10.76C217.066 10.184 218.242 9.896 219.554 9.896C220.818 9.896 221.954 10.168 222.962 10.712C223.986 11.24 224.794 12.008 225.386 13.016C225.978 14.008 226.274 15.2 226.274 16.592C226.274 16.736 226.266 16.904 226.25 17.096C226.234 17.272 226.218 17.44 226.202 17.6H215.714V15.416H224.234L222.794 16.064C222.794 15.392 222.658 14.808 222.386 14.312C222.114 13.816 221.738 13.432 221.258 13.16C220.778 12.872 220.218 12.728 219.578 12.728C218.938 12.728 218.37 12.872 217.874 13.16C217.394 13.432 217.018 13.824 216.746 14.336C216.474 14.832 216.338 15.424 216.338 16.112V16.688C216.338 17.392 216.49 18.016 216.794 18.56C217.114 19.088 217.554 19.496 218.114 19.784C218.69 20.056 219.362 20.192 220.13 20.192C220.818 20.192 221.418 20.088 221.93 19.88C222.458 19.672 222.938 19.36 223.37 18.944L225.362 21.104C224.77 21.776 224.026 22.296 223.13 22.664C222.234 23.016 221.202 23.192 220.034 23.192ZM233.111 23.192C232.007 23.192 230.943 23.064 229.919 22.808C228.911 22.536 228.111 22.2 227.519 21.8L228.767 19.112C229.359 19.48 230.055 19.784 230.855 20.024C231.671 20.248 232.471 20.36 233.255 20.36C234.119 20.36 234.727 20.256 235.079 20.048C235.447 19.84 235.631 19.552 235.631 19.184C235.631 18.88 235.487 18.656 235.199 18.512C234.927 18.352 234.559 18.232 234.095 18.152C233.631 18.072 233.119 17.992 232.559 17.912C232.015 17.832 231.463 17.728 230.903 17.6C230.343 17.456 229.831 17.248 229.367 16.976C228.903 16.704 228.527 16.336 228.239 15.872C227.967 15.408 227.831 14.808 227.831 14.072C227.831 13.256 228.063 12.536 228.527 11.912C229.007 11.288 229.695 10.8 230.591 10.448C231.487 10.08 232.559 9.896 233.807 9.896C234.687 9.896 235.583 9.992 236.495 10.184C237.407 10.376 238.167 10.656 238.775 11.024L237.527 13.688C236.903 13.32 236.271 13.072 235.631 12.944C235.007 12.8 234.399 12.728 233.807 12.728C232.975 12.728 232.367 12.84 231.983 13.064C231.599 13.288 231.407 13.576 231.407 13.928C231.407 14.248 231.543 14.488 231.815 14.648C232.103 14.808 232.479 14.936 232.943 15.032C233.407 15.128 233.911 15.216 234.455 15.296C235.015 15.36 235.575 15.464 236.135 15.608C236.695 15.752 237.199 15.96 237.647 16.232C238.111 16.488 238.487 16.848 238.775 17.312C239.063 17.76 239.207 18.352 239.207 19.088C239.207 19.888 238.967 20.6 238.487 21.224C238.007 21.832 237.311 22.312 236.399 22.664C235.503 23.016 234.407 23.192 233.111 23.192Z" fill="white"/>
</svg>
