<svg width="341" height="316" viewBox="0 0 341 316" fill="none" xmlns="http://www.w3.org/2000/svg">
<g clip-path="url(#clip0_0_111)">
<path d="M176.393 179.98C176.393 179.98 178.924 205.172 199.876 211.423C220.827 217.675 232.153 213.697 244.61 200.626C244.61 200.626 241.213 226.199 227.056 235.859C227.056 235.859 260.465 231.782 271.224 196.884C271.224 196.884 303.501 194.565 305.2 164.637C305.2 164.637 336.344 154.029 340.309 125.616C344.273 97.2033 330.682 88.6791 312.562 77.883C312.562 77.883 319.824 61.5801 299.268 45.386C284.86 36.9034 267.827 46.06 267.827 46.06C267.827 46.06 259.899 18.2153 221.394 17.0786C209.502 17.0786 190.48 29.0122 188.666 42.0824C188.666 42.0824 166.069 28.4438 145.316 43.2183C124.563 57.9935 130.542 85.2698 137.462 97.7717C137.462 97.7717 115.241 119.365 127.264 150.051C139.285 180.737 176.393 179.98 176.393 179.98Z" fill="#094C8A"/>
<path d="M223.361 154.118H226.921C234.273 154.118 240.233 160.099 240.233 167.477C240.233 174.854 234.273 180.835 226.921 180.835H223.361C216.009 180.835 210.049 174.854 210.049 167.477C210.049 160.099 216.009 154.118 223.361 154.118ZM239.194 146.602H211.013V143.773C211.013 138.962 211.557 135.054 212.645 132.052C213.732 129.051 215.351 126.31 217.502 123.829C219.653 121.348 224.485 116.982 232 110.73C236.005 107.456 238.008 104.454 238.008 101.725C238.008 98.9969 237.203 96.8763 235.597 95.3625C233.99 93.8495 231.555 93.0923 228.293 93.0923C224.782 93.0923 221.878 94.2582 219.579 96.5902C217.279 98.9229 215.809 102.991 215.166 108.796L186.393 105.223C187.381 94.606 191.225 86.0602 197.924 79.5848C204.622 73.111 214.893 69.873 228.737 69.873C239.515 69.873 248.217 72.1309 254.842 76.6452C263.84 82.7481 268.338 90.8852 268.338 101.055C268.338 105.273 267.176 109.342 264.853 113.261C262.529 117.181 257.782 121.968 250.615 127.624C245.62 131.594 242.469 134.781 241.159 137.187C239.848 139.594 239.194 142.731 239.194 146.602Z" fill="white"/>
<path d="M142.487 283.637C142.487 283.637 121.057 283.633 104.151 283.637C87.2456 283.641 84.9403 292.432 94.1616 293.627C103.383 294.823 122.594 300.606 113.373 303.305C104.151 306.004 102.23 314.872 117.215 315.258C132.199 315.644 207.89 316.029 220.185 315.258C232.48 314.487 226.172 304.076 211.268 304.462C196.364 304.848 203.245 299.889 226.7 299.669C250.155 299.45 267.06 286.117 239.396 285.264C211.733 284.412 142.487 283.637 142.487 283.637Z" fill="#1B6FBC" fill-opacity="0.2"/>
<path d="M148.756 292.109C148.756 292.109 142.073 290.594 139.241 292.109C136.41 293.624 138.625 300.025 153.656 297.772L148.756 292.109Z" fill="#333333"/>
<path d="M184.088 292.109C184.088 292.109 190.771 290.594 193.603 292.109C196.434 293.624 194.219 300.025 179.188 297.772L184.088 292.109Z" fill="#333333"/>
<path d="M138.864 277.902C138.864 277.902 132.258 276.387 133.39 284.533C134.522 289.837 153.657 297.772 153.657 297.772V281.787L138.864 277.902Z" fill="#577194"/>
<path d="M162.458 241.986V246.658C162.458 246.658 166.113 251.285 170.467 246.658V241.986C170.467 241.986 165.114 237.24 162.458 241.986Z" fill="#FFAA79"/>
<path d="M195.207 277.902C195.207 277.902 201.813 276.387 200.681 284.533C199.548 289.837 180.414 297.772 180.414 297.772V281.787L195.207 277.902Z" fill="#577194"/>
<path d="M179.846 249.111L173.451 246.727C169.052 245.088 164.213 245.088 159.815 246.727L153.421 249.111C153.421 249.111 144.172 254.225 151.722 280.554C151.722 280.554 156.252 284.533 166.633 284.533C177.014 284.533 181.545 280.554 181.545 280.554C189.095 254.225 179.846 249.111 179.846 249.111Z" fill="#1B6FBC"/>
<path d="M162.183 214.886C162.183 214.886 157.532 213.513 155.343 216.533C153.154 219.554 155.343 223.534 155.343 223.534C155.343 223.534 151.923 224.221 151.376 228.477C150.829 232.733 153.975 234.105 153.975 234.105C153.975 234.105 152.06 237.126 154.249 240.42C155.617 242.342 160.131 240.42 160.131 240.42C160.131 240.42 160.268 242.205 162.183 242.891C164.098 243.578 165.877 241.381 165.877 241.381C165.877 241.381 168.202 244.53 172.854 243.024C177.505 241.518 176.82 237.675 176.82 237.675C176.82 237.675 180.241 238.36 181.882 235.616C183.524 232.87 180.652 229.575 180.652 229.575C180.652 229.575 182.567 225.868 180.652 221.75C178.736 217.632 175.727 219.142 175.727 219.142C175.727 219.142 176.137 215.16 173.674 213.787C171.212 212.414 168.339 215.572 168.339 215.572C168.339 215.572 168.476 211.548 165.466 211.591C162.284 211.635 162.183 214.886 162.183 214.886Z" fill="#333333"/>
<path d="M151.722 280.555C151.722 280.555 150.8 289.268 151.722 294.951C152.643 300.633 166.422 301.201 173.029 300.822C179.635 300.443 184.399 297.792 181.545 280.555C181.545 280.555 166.851 288.04 151.722 280.555Z" fill="#617BA1"/>
<path d="M153.105 260.397C153.32 262.189 153.493 263.982 153.664 265.774L154.136 271.155L154.531 276.542C154.646 278.339 154.765 280.136 154.824 281.941C154.527 280.16 154.297 278.373 154.09 276.581C153.879 274.791 153.731 272.995 153.562 271.201C153.441 269.403 153.302 267.607 153.224 265.805C153.145 264.005 153.083 262.202 153.105 260.397Z" fill="#5757C0"/>
<path d="M180.048 260.347C180.069 262.152 180.008 263.954 179.928 265.755C179.85 267.556 179.711 269.353 179.59 271.15C179.421 272.945 179.273 274.741 179.062 276.531C178.855 278.321 178.625 280.11 178.328 281.89C178.387 280.086 178.506 278.288 178.621 276.491L179.016 271.104L179.488 265.724C179.659 263.93 179.832 262.138 180.048 260.347Z" fill="#5757C0"/>
<path d="M93.3935 303.203C93.3935 304.467 89.8387 305.491 85.4532 305.491C81.0677 305.491 77.5121 304.467 77.5121 303.203C77.5121 301.939 81.0677 300.915 85.4532 300.915C89.8387 300.915 93.3935 301.939 93.3935 303.203Z" fill="#1B6FBC" fill-opacity="0.2"/>
<path d="M277.563 298.576C277.563 299.867 272.917 300.915 267.189 300.915C261.459 300.915 256.815 299.867 256.815 298.576C256.815 297.283 261.459 296.237 267.189 296.237C272.917 296.237 277.563 297.283 277.563 298.576Z" fill="#1B6FBC" fill-opacity="0.2"/>
<path d="M244.007 311.146C244.007 311.571 242.517 311.917 240.678 311.917C238.838 311.917 237.347 311.571 237.347 311.146C237.347 310.72 238.838 310.375 240.678 310.375C242.517 310.375 244.007 310.72 244.007 311.146Z" fill="#1B6FBC" fill-opacity="0.2"/>
<path d="M75.2072 286.997C75.2072 287.43 73.4867 287.782 71.365 287.782C69.2426 287.782 67.5228 287.43 67.5228 286.997C67.5228 286.564 69.2426 286.212 71.365 286.212C73.4867 286.212 75.2072 286.564 75.2072 286.997Z" fill="#1B6FBC" fill-opacity="0.2"/>
<path d="M64.7049 304.347C64.7049 304.978 63.2718 305.49 61.5028 305.49C59.7347 305.49 58.3015 304.978 58.3015 304.347C58.3015 303.715 59.7347 303.203 61.5028 303.203C63.2718 303.203 64.7049 303.715 64.7049 304.347Z" fill="#1B6FBC" fill-opacity="0.2"/>
<path d="M28.8447 41.3468C28.8447 43.5823 27.0381 45.3953 24.8104 45.3953C22.5827 45.3953 20.7761 43.5823 20.7761 41.3468C20.7761 39.1112 22.5827 37.2982 24.8104 37.2982C27.0381 37.2982 28.8447 39.1112 28.8447 41.3468Z" fill="#1B6FBC" fill-opacity="0.2"/>
<path d="M133.082 9.22471C133.082 12.644 130.32 15.4155 126.913 15.4155C123.506 15.4155 120.744 12.644 120.744 9.22471C120.744 5.80621 123.506 3.0347 126.913 3.0347C130.32 3.0347 133.082 5.80621 133.082 9.22471Z" fill="#1B6FBC" fill-opacity="0.2"/>
<path d="M150.625 191.966C150.625 194.687 148.427 196.892 145.716 196.892C143.005 196.892 140.807 194.687 140.807 191.966C140.807 189.245 143.005 187.04 145.716 187.04C148.427 187.04 150.625 189.245 150.625 191.966Z" fill="#1B6FBC" fill-opacity="0.2"/>
<path d="M300.103 227.511C300.103 228.789 299.071 229.825 297.798 229.825C296.525 229.825 295.493 228.789 295.493 227.511C295.493 226.234 296.525 225.198 297.798 225.198C299.071 225.198 300.103 226.234 300.103 227.511Z" fill="#1B6FBC" fill-opacity="0.2"/>
<path d="M61.325 231.039C61.325 232.715 59.971 234.074 58.3011 234.074C56.6313 234.074 55.2773 232.715 55.2773 231.039C55.2773 229.364 56.6313 228.005 58.3011 228.005C59.971 228.005 61.325 229.364 61.325 231.039Z" fill="#1B6FBC" fill-opacity="0.2"/>
<path d="M283.61 3.03447C283.61 4.71017 282.256 6.06894 280.586 6.06894C278.917 6.06894 277.563 4.71017 277.563 3.03447C277.563 1.35876 278.917 -3.8147e-06 280.586 -3.8147e-06C282.256 -3.8147e-06 283.61 1.35876 283.61 3.03447Z" fill="#1B6FBC" fill-opacity="0.2"/>
<path d="M119.946 50.2421L22.7337 76.2168C6.4029 80.5799 -3.31017 97.4025 1.03765 113.791L18.8139 180.792C23.0058 196.59 38.7334 206.212 54.4894 202.977C63.0729 215.246 78.4178 221.197 76.841 218.993C71.6702 211.766 69.8843 204.42 69.3526 199.066L153.469 176.59C169.799 172.227 179.514 155.405 175.164 139.016L157.388 72.0148C153.04 55.6263 136.277 45.879 119.946 50.2421Z" fill="#1B6FBC"/>
<path d="M91.481 153.802L94.192 152.98C99.7909 151.283 105.701 154.461 107.392 160.08H107.393C109.084 165.698 105.917 171.629 100.318 173.326L97.607 174.148C92.0081 175.845 86.0981 172.667 84.406 167.049C82.7146 161.43 85.8821 155.499 91.481 153.802ZM101.816 144.422L80.3548 150.929L79.7062 148.775C78.6027 145.11 78.1209 142.01 78.2615 139.472C78.4014 136.935 79.0062 134.475 80.0751 132.088C81.144 129.703 83.8227 125.261 88.1129 118.765C90.4121 115.347 91.2489 112.599 90.6226 110.521C89.9971 108.443 88.899 107.013 87.3283 106.231C85.7577 105.45 83.7305 105.436 81.2454 106.19C78.5712 107 76.6271 108.559 75.4114 110.865C74.195 113.173 74.0075 116.61 74.8497 121.179L52.1177 125.102C50.4356 116.788 51.4039 109.393 55.0217 102.915C58.6379 96.4378 65.7183 91.6004 76.2605 88.404C84.4682 85.9155 91.6124 85.6263 97.6923 87.5341C105.944 90.1036 111.236 95.2618 113.568 103.007C114.535 106.219 114.583 109.586 113.712 113.107C112.84 116.629 110.324 121.371 106.161 127.332C103.269 131.509 101.599 134.664 101.153 136.799C100.708 138.934 100.928 141.475 101.816 144.422Z" fill="white"/>
</g>
<defs>
<clipPath id="clip0_0_111">
<rect width="341" height="315.703" fill="white"/>
</clipPath>
</defs>
</svg>
